<svg id="Group_6" data-name="Group 6" xmlns="http://www.w3.org/2000/svg" xmlns:xlink="http://www.w3.org/1999/xlink" width="72.477" height="137.358" viewBox="0 0 72.477 137.358">
  <defs>
    <clipPath id="clip-path">
      <rect id="Rectangle_180" data-name="Rectangle 180" width="72.477" height="137.358" fill="none"/>
    </clipPath>
  </defs>
  <g id="Group_5" data-name="Group 5" clip-path="url(#clip-path)">
    <path id="Path_40" data-name="Path 40" d="M6.308,135.539h0Z" transform="translate(-0.931 -20.022)" fill="#001c43"/>
    <path id="Path_41" data-name="Path 41" d="M29.993,124.364a14.137,14.137,0,0,0-.638-1.295c-.236-.418-.48-.837-.708-1.256a12.8,12.8,0,0,1-1.15-2.593l.089-.676a2.79,2.79,0,0,0-.025-.719,1.113,1.113,0,0,0-1.014-1.01,1.058,1.058,0,0,0-.938,1.071,3.416,3.416,0,0,0,.062.716l.153.674.007.339c-.1.819-.206,1.631-.322,2.444-.074.4-.164.807-.245,1.211-.065.281-.142.559-.221.837a4.324,4.324,0,0,0-.385.792c-.146.349-.311.689-.483,1.024a7.974,7.974,0,0,1-.571.97,4.941,4.941,0,0,1-.728.845c-.143.116-.277.247-.426.351a2.385,2.385,0,0,1-.473.261,1.1,1.1,0,0,1-.5.069.736.736,0,0,1-.424-.231,1.732,1.732,0,0,1-.448-.949l-.175-1.118c-.046-.368-.065-.75-.08-1.125a34.037,34.037,0,0,1,.3-4.526,2.5,2.5,0,0,0-.013-.663.759.759,0,0,0-.341-.562h0a.558.558,0,0,0-.5.022,1.652,1.652,0,0,0-.383.332h0l0,0a1.694,1.694,0,0,0-.233.531c-.038.189-.066.375-.1.563-.055.376-.112.753-.154,1.131-.089.752-.127,1.512-.175,2.27a10.835,10.835,0,0,0,.034,2.29,6.686,6.686,0,0,0,.605,2.228,3.436,3.436,0,0,0,.686.961,1.961,1.961,0,0,0,1.1.471,3.251,3.251,0,0,0,2.239-.572,4.91,4.91,0,0,0,.825-.814,10.169,10.169,0,0,0,.693-.914,16.68,16.68,0,0,0,1.087-2.008c.1-.218.2-.438.283-.667.03-.052.064-.1.089-.154a7.145,7.145,0,0,0,.455-1.457l.251-1.2c.417.761.828,1.525,1.226,2.278l.169.314a2.574,2.574,0,0,1,.128.329c.077.221.164.441.232.663a2.724,2.724,0,0,1,.029,1.354,1.664,1.664,0,0,1-.286.592,1.535,1.535,0,0,1-.522.408l-.639.309a1.082,1.082,0,0,0-.61.5.848.848,0,0,0-.066.413.628.628,0,0,0,.17.4,1,1,0,0,0,.757.233,2.616,2.616,0,0,0,.743-.117,3.766,3.766,0,0,0,.672-.314,2.811,2.811,0,0,0,1.03-1.05,3.653,3.653,0,0,0,.43-1.4,5.1,5.1,0,0,0-.088-1.45,4.949,4.949,0,0,0-.468-1.368" transform="translate(-2.762 -17.256)" fill="#001c43"/>
    <path id="Path_42" data-name="Path 42" d="M36.618,128.829q-.216-1.093-.355-2.2c-.2-1.474-.205-2.967-.28-4.452-.027-.743-.071-1.486-.084-2.23l-.023-2.23c0-.372-.011-.744-.005-1.116l.037-1.115.067-2.126c1.2.02,2.408-.059,3.6-.128l.926-.095c.309-.032.618-.06.921-.121a3.212,3.212,0,0,0,.915-.262,2.027,2.027,0,0,0,.413-.257.694.694,0,0,0,.257-.459.684.684,0,0,0-.112-.518.851.851,0,0,0-.456-.245,2.249,2.249,0,0,0-.96,0,16.674,16.674,0,0,1-1.819.287c-1.211.124-2.429.249-3.646.268.078-1.763.258-3.522.506-5.27a1.511,1.511,0,0,0,0-.533,1.235,1.235,0,0,0-.176-.5.485.485,0,0,0-.483-.193.762.762,0,0,0-.48.231,4.938,4.938,0,0,0-.557,2.038c-.1.7-.171,1.406-.216,2.112l-.147,2.046L32.7,111.6c-.609-.054-1.219-.1-1.82-.2s-1.2-.2-1.8-.338l-.226-.052a1.816,1.816,0,0,0-.245-.027,2.321,2.321,0,0,0-.484.025,1.116,1.116,0,0,0-.476.189.628.628,0,0,0-.184.213.462.462,0,0,0-.054.3,1.045,1.045,0,0,0,.242.461,1.429,1.429,0,0,0,.379.329,2.418,2.418,0,0,0,.919.275c.607.108,1.211.211,1.822.285,1.174.151,2.357.241,3.54.281l-.066,4.226c0,.727-.037,1.454-.018,2.181s.038,1.455.071,2.181c.068,1.453.171,2.905.318,4.351.076.724.126,1.445.222,2.172a10.874,10.874,0,0,0,.525,2.121,2.192,2.192,0,0,0,.251.568,1.158,1.158,0,0,0,.441.453.691.691,0,0,0,.318.089.5.5,0,0,0,.319-.115,1.012,1.012,0,0,0,.333-.539v-.005a2.155,2.155,0,0,0-.162-1.118,10.284,10.284,0,0,1-.247-1.082" transform="translate(-4.048 -15.559)" fill="#001c43"/>
    <path id="Path_43" data-name="Path 43" d="M36.746,134.96l0-.005h0Z" transform="translate(-5.428 -19.935)" fill="#001c43"/>
    <path id="Path_44" data-name="Path 44" d="M47.113,119.412h0Z" transform="translate(-6.96 -17.64)" fill="#001c43"/>
    <path id="Path_45" data-name="Path 45" d="M59.5,124.192a.544.544,0,0,0-.4-.389.7.7,0,0,0-.531.123,2.109,2.109,0,0,0-.657.785l-.466.882c-.305.587-.637,1.174-.989,1.727a3.89,3.89,0,0,1-.639.747,1.288,1.288,0,0,1-.857.4.956.956,0,0,1-.809-.429,2.455,2.455,0,0,1-.312-.919,12.108,12.108,0,0,1-.022-1.982l.072-.993.1-.99c.035-.331.093-.653.138-.979a5.344,5.344,0,0,0,.112-1,1.57,1.57,0,0,0-.079-.7,1.081,1.081,0,0,0-.489-.537,1.972,1.972,0,0,0-.666-.211l-.669-.053-.62-.015a1.86,1.86,0,0,1-.511-.038,3.636,3.636,0,0,0-.161-.434,1.1,1.1,0,0,0-.378-.411,1,1,0,0,0-1.076.036.977.977,0,0,0-.346.435,1.263,1.263,0,0,0-.078.538,1.249,1.249,0,0,0,.437.917c0,.465-.017.929-.025,1.394l-.031,1.422c0,.078-.009.157-.013.235a2.7,2.7,0,0,1-.211.744,8.477,8.477,0,0,1-.6,1.093l0,.005A6.927,6.927,0,0,1,48,126.6a6.349,6.349,0,0,1-1.885,1.468,4.185,4.185,0,0,1-2.29.5,1.752,1.752,0,0,1-1.049-.41,1.593,1.593,0,0,1-.539-.97,2.7,2.7,0,0,1,.81-2.116,3.447,3.447,0,0,1,.934-.729,3.2,3.2,0,0,0,.505-.362,1.387,1.387,0,0,0,.384-.5.629.629,0,0,0,.055-.325.74.74,0,0,0-.12-.3,1.8,1.8,0,0,0-.436-.441,2.855,2.855,0,0,0-.254-.175,1.373,1.373,0,0,1-.247-.165.889.889,0,0,1-.253-.521.781.781,0,0,1,.127-.562,1.142,1.142,0,0,1,.466-.362,1.91,1.91,0,0,1,1.182-.09,2.043,2.043,0,0,0,.623.127.613.613,0,0,0,.578-.9,1.229,1.229,0,0,0-.439-.467,2.015,2.015,0,0,0-.872-.343,3.165,3.165,0,0,0-.941.038,2.8,2.8,0,0,0-1.653.878,2.618,2.618,0,0,0-.506.816,2.19,2.19,0,0,0-.13.959,2.574,2.574,0,0,0,.256.936,1.692,1.692,0,0,0,.281.408l.166.17.057.061a5.815,5.815,0,0,0-.982.8A4.587,4.587,0,0,0,41,125.162a3.869,3.869,0,0,0-.378,1.364,3.392,3.392,0,0,0,.139,1.414,3.255,3.255,0,0,0,1.948,1.976,4.75,4.75,0,0,0,2.778.136,7.909,7.909,0,0,0,4.359-3.269,8.4,8.4,0,0,0,.684-1.2,6.465,6.465,0,0,0,.253-.613c.02-.061.035-.121.052-.181s.032-.111.044-.166c0-.008.007-.016.01-.024a7.361,7.361,0,0,0,.175-1.054l0-.033.017-.249.071-1v-.005l.014-1.046a2.132,2.132,0,0,0,.269.026l.348,0c.234-.005.453.028.678.042h.012l.1,0,.03,0a.278.278,0,0,1,.01.04l.017.083a4.914,4.914,0,0,1-.149.787v.009l-.234,1.986c-.025.669-.057,1.332-.061,2.007a6.6,6.6,0,0,0,.326,2.006,3.77,3.77,0,0,0,.477.915,2.024,2.024,0,0,0,.8.69,2.68,2.68,0,0,0,2.045.131,3.363,3.363,0,0,0,.894-.519,4.981,4.981,0,0,0,.737-.706,9.891,9.891,0,0,0,1.122-1.677c.155-.3.294-.6.441-.9l.218-.452a3.218,3.218,0,0,0,.2-.465,1.775,1.775,0,0,0,.062-1.036" transform="translate(-5.997 -17.524)" fill="#001c43"/>
    <path id="Path_46" data-name="Path 46" d="M19.67,116.4a.986.986,0,0,0,.644.333.782.782,0,0,0,.672-.305,1.193,1.193,0,0,0,0-1.347.85.85,0,0,0-.675-.333.938.938,0,0,0-.94,1.008,1.105,1.105,0,0,0,.3.644" transform="translate(-2.861 -16.951)" fill="#001c43"/>
    <path id="Path_47" data-name="Path 47" d="M15.73,146.764h0Z" transform="translate(-2.323 -21.68)" fill="#001c43"/>
    <path id="Path_48" data-name="Path 48" d="M13.8,136.312l-.19-1.418c-.007-.057-.013-.115-.02-.172l0-.009-.576-5.883.008.03q-.238-2.458-.424-4.921L12.437,121c-.047-.98-.062-1.962-.074-2.943q-.028-2.943.11-5.886.225-4.283.695-8.546v0l0-.455a3.917,3.917,0,0,0,.251-1.458V101.7a1.657,1.657,0,0,0-.176-.4.491.491,0,0,0-.348-.281.847.847,0,0,0-.763.4,6.456,6.456,0,0,0-.626,1.6l-.518,1.632c-.173.544-.311,1.1-.468,1.645-.309,1.1-.605,2.2-.9,3.3s-.584,2.2-.868,3.309l-1.678,6.632L5.63,125.393l-.184-2c-.077-.851-.126-1.707-.19-2.56-.113-1.708-.166-3.419-.253-5.128-.037-.855-.084-1.709-.112-2.565l-.066-2.567L4.761,108l-.032-1.284a2.535,2.535,0,0,0-.086-.664.919.919,0,0,0-.348-.55,1.182,1.182,0,0,0-.115-.482.691.691,0,0,0-.476-.354l-.012,0H3.684a.775.775,0,0,0-.447.089.869.869,0,0,0-.315.319,2.95,2.95,0,0,0-.322.745q-.188.762-.321,1.532c-.175,1.032-.274,2.063-.413,3.09l-.809,6.175c-.15,1.028-.226,2.064-.341,3.1l-.317,3.1c-.209,2.066-.355,4.14-.384,6.222-.02.52-.014,1.039-.014,1.557a3.348,3.348,0,0,0,.057.8,1.928,1.928,0,0,0,.345.739,1.177,1.177,0,0,0,.306.291.523.523,0,0,0,.455.061,1.022,1.022,0,0,0,.566-.62,2.668,2.668,0,0,0,.093-.8,5.645,5.645,0,0,0-.058-.788,18.454,18.454,0,0,1-.018-3.093c.024-1.035.1-2.07.163-3.106.135-2.069.371-4.131.6-6.193.194-1.859.447-3.712.685-5.565l.172,3.255c.06,1.291.158,2.581.242,3.87l.26,3.869c.062,1.291.231,2.576.361,3.863v-.007c.02.22.027.443.068.659s.058.436.115.649a5.4,5.4,0,0,0,.378,1.253.958.958,0,0,0,.122.482.442.442,0,0,0,.2.183.625.625,0,0,0,.257.051.715.715,0,0,0,.643-.292,2.961,2.961,0,0,0,.317-.623,4.443,4.443,0,0,0,.184-.667l.158-.666.63-2.663,1.271-5.322c.424-1.774.844-3.55,1.311-5.312l1.1-4.3-.014.58-.074,1.611q-.063,1.613-.081,3.228c-.028,2.153.02,4.306.129,6.456s.3,4.3.48,6.438c.084,1.071.239,2.14.354,3.21.058.469.106.933.181,1.4l.1,1.042.149,1.138q.063.519.136,1.038l.163,1.244c.029.189.052.378.087.568l.127.563a2.618,2.618,0,0,0,.232.53.817.817,0,0,0,.447.365.627.627,0,0,0,.361.061.422.422,0,0,0,.286-.227,1.689,1.689,0,0,0,.189-.7,9.724,9.724,0,0,0-.171-1.425Z" transform="translate(0 -14.922)" fill="#001c43"/>
    <path id="Path_49" data-name="Path 49" d="M52.567,153.881l-.182-.951-.11-.763c-.043-.39-.088-.781-.126-1.173-.217-2.207-.325-4.42-.4-6.633-.059-2.077-.016-4.156.106-6.231.115-1.418.247-2.835.415-4.249a1.245,1.245,0,0,0,.019-.381.989.989,0,0,0-.1-.374.531.531,0,0,0-.753-.243.729.729,0,0,0-.347.217,1.378,1.378,0,0,0-.182.332,3.158,3.158,0,0,0-.167.711c-.064.477-.107.957-.158,1.437-.015.159-.029.318-.045.477v.011c-.065.642-.135,1.284-.18,1.927l.009,0h0c-.064,1.12-.1,2.133-.122,3.447-.038,1.925-.028,3.852.052,5.778q.06,1.443.166,2.886c.045.617.1,1.23.158,1.843L49.231,147.6c-.141-.447-.293-.89-.424-1.339l-.387-1.347-.774-2.693-.77-2.695-.62-2.329-.2-.828a1.988,1.988,0,0,0-.127-.4l-.008-.031c0-.006-.012-.012-.014-.018-.028-.064-.055-.13-.087-.188a.99.99,0,0,0-.516-.477,1.1,1.1,0,0,0-.232-.452.879.879,0,0,0-.626-.263h-.024a1.021,1.021,0,0,0-.5.164.876.876,0,0,0-.3.366,2.519,2.519,0,0,0-.222.784c-.034.432-.044.863-.049,1.3l0,.015a.664.664,0,0,0-.008.071L43.2,139.92c-.047.927-.107,1.854-.134,2.781l-.047,2.783c-.012.928-.046,1.732-.044,2.661.005.188,0,.376.014.563.033.928.069,1.855.139,2.782a5.84,5.84,0,0,0,.089.7,2.526,2.526,0,0,0,.2.687,2.047,2.047,0,0,0,.447.608.674.674,0,0,0,.416.156.742.742,0,0,0,.41-.157h0l0,0a.8.8,0,0,0,.273-.537,1.683,1.683,0,0,0-.025-.57c-.025-.189-.062-.372-.1-.553a4.824,4.824,0,0,1-.063-.555c-.061-.741-.141-1.483-.187-2.226l-.02-.539-.036-1.587.085-4.47.261-4.131c.455,1.673.941,3.332,1.41,5,.487,1.778,1.049,3.54,1.591,5.306l.82,2.649.845,2.354.337.944c.1.251.182.5.3.754a4.789,4.789,0,0,0,.366.753,2.24,2.24,0,0,0,.605.661,1.567,1.567,0,0,0,.455.212.833.833,0,0,0,.534-.022.7.7,0,0,0,.38-.17.886.886,0,0,0,.211-.3,1.571,1.571,0,0,0,.161-.64V155.8c-.11-.639-.2-1.287-.328-1.918" transform="translate(-6.348 -19.619)" fill="#001c43"/>
    <path id="Path_50" data-name="Path 50" d="M73.744,150.548h0l0,0Z" transform="translate(-10.894 -22.239)" fill="#001c43"/>
    <path id="Path_51" data-name="Path 51" d="M80.652,148.559a.782.782,0,0,0-.3-.2.447.447,0,0,0-.362.034,2.335,2.335,0,0,0-.818,1.107h0v0a7.2,7.2,0,0,1-1.245,2.058,6.33,6.33,0,0,1-1.885,1.469,4.181,4.181,0,0,1-2.289.494,1.754,1.754,0,0,1-1.05-.41,1.593,1.593,0,0,1-.539-.97,2.7,2.7,0,0,1,.81-2.116,3.447,3.447,0,0,1,.934-.729,3.14,3.14,0,0,0,.505-.362,1.37,1.37,0,0,0,.384-.5.612.612,0,0,0,.055-.325.747.747,0,0,0-.119-.3,1.794,1.794,0,0,0-.437-.441,3.048,3.048,0,0,0-.254-.175,1.4,1.4,0,0,1-.246-.165.883.883,0,0,1-.254-.52.788.788,0,0,1,.127-.562,1.133,1.133,0,0,1,.466-.362,1.9,1.9,0,0,1,1.182-.09,2.1,2.1,0,0,0,.623.127.613.613,0,0,0,.578-.9,1.233,1.233,0,0,0-.438-.467,2.007,2.007,0,0,0-.873-.342,3.11,3.11,0,0,0-.941.038,2.8,2.8,0,0,0-1.653.877,2.644,2.644,0,0,0-.506.816,2.217,2.217,0,0,0-.13.96,2.576,2.576,0,0,0,.257.935,1.665,1.665,0,0,0,.28.408l.166.17.057.061a5.78,5.78,0,0,0-.982.805,5.9,5.9,0,0,0-.42.487c-.029.029-.06.057-.086.089a2.253,2.253,0,0,0-.51.832,4.846,4.846,0,0,1-.466.834,5.2,5.2,0,0,1-1.13,1.154,3.275,3.275,0,0,1-2.276.7,2.232,2.232,0,0,1-.62-.15,2.532,2.532,0,0,1-.766-.505,3.052,3.052,0,0,1-.841-1.64,3.2,3.2,0,0,1,.182-1.859,3.649,3.649,0,0,1,1.123-1.526,2.342,2.342,0,0,1,.857-.414,1.613,1.613,0,0,1,.94.1,1.851,1.851,0,0,0,.45.091.934.934,0,0,0,.457-.064.579.579,0,0,0,.324-.328.775.775,0,0,0-.034-.464h0v0a1.12,1.12,0,0,0-.536-.568,3.245,3.245,0,0,0-.746-.246,3.309,3.309,0,0,0-1.566.086,4.429,4.429,0,0,0-2.393,1.989,5.228,5.228,0,0,0-.668,1.982,5.328,5.328,0,0,0-.252.563c-.146.349-.311.688-.483,1.024a7.844,7.844,0,0,1-.571.97,4.98,4.98,0,0,1-.728.845c-.143.116-.277.247-.426.35a2.343,2.343,0,0,1-.473.261,1.1,1.1,0,0,1-.5.07.74.74,0,0,1-.424-.232,1.729,1.729,0,0,1-.448-.949l-.175-1.118c-.046-.368-.065-.749-.08-1.125a34.016,34.016,0,0,1,.3-4.526,2.5,2.5,0,0,0-.013-.663.759.759,0,0,0-.341-.562l0,0h0a.555.555,0,0,0-.5.023,1.669,1.669,0,0,0-.383.332h0l0,0a1.7,1.7,0,0,0-.233.53c-.038.189-.066.375-.1.563-.055.375-.112.753-.154,1.13-.089.753-.127,1.512-.175,2.27a10.843,10.843,0,0,0,.034,2.291,6.692,6.692,0,0,0,.605,2.228,3.42,3.42,0,0,0,.686.961,1.956,1.956,0,0,0,1.1.471,3.247,3.247,0,0,0,2.239-.572,4.909,4.909,0,0,0,.825-.814,10.05,10.05,0,0,0,.693-.914c.136-.209.263-.422.384-.637a4.7,4.7,0,0,0,.8,1.179,4.112,4.112,0,0,0,3.213,1.225,3.207,3.207,0,0,0,.75-.133,6.227,6.227,0,0,0,1.846-.891,5.6,5.6,0,0,0,.725-.619,3.272,3.272,0,0,0,1.868,1.78,4.743,4.743,0,0,0,2.778.136,7.9,7.9,0,0,0,4.359-3.269,8.444,8.444,0,0,0,.685-1.2,5.977,5.977,0,0,0,.263-.641,3.951,3.951,0,0,0,.152-.68.816.816,0,0,0-.211-.668" transform="translate(-8.392 -21.257)" fill="#001c43"/>
    <path id="Path_52" data-name="Path 52" d="M57.83,141.314a.986.986,0,0,0,.644.333.782.782,0,0,0,.672-.305,1.193,1.193,0,0,0,0-1.347.85.85,0,0,0-.675-.333.938.938,0,0,0-.94,1.008,1.105,1.105,0,0,0,.3.644" transform="translate(-8.498 -20.631)" fill="#001c43"/>
    <path id="Path_53" data-name="Path 53" d="M34.914,56.069a35.193,35.193,0,0,0,1.845,4.2c.5.98,1.473,2.974,2.015,3.752-.617-1.1-1.19-2.3-1.706-3.425,1.266,2.408,2.568,4.919,3.894,7.239C39.74,65.65,38.578,63.42,37.509,61.2a41.835,41.835,0,0,1-2.634-6.686,69.166,69.166,0,0,0,3.534,8.106c1.366,2.757,2.8,5.468,4.2,7.717.213.341-2.215-3.864-3.568-6.591a88.506,88.506,0,0,1-3.624-8.09,36.635,36.635,0,0,1-1.953-7.308c-.087-.687-.17-1.379-.215-2.072a33.634,33.634,0,0,1-.038-4.278c.023-.632.118-1.506.185-2.287a6.125,6.125,0,0,0,.049-1.735c-.087.4-.149.85-.226,1.237a4.835,4.835,0,0,1,.009-.5,4.209,4.209,0,0,0-.078.505,1.112,1.112,0,0,0-.01-.319,5,5,0,0,0-.054.649c-.009.094.005.528-.023.648-.017-.322-.007-.728-.026-.995-.02.109-.036.2-.057.322a3.974,3.974,0,0,0,.005-.466c-.034.264-.068.526-.1.8-.032.228-.064.434-.077.655a7.167,7.167,0,0,0,.014-.808,2.837,2.837,0,0,0-.049.375.049.049,0,0,0-.012-.03l-.029.187c-.007,0-.017.012-.024,0l.017.005-.015.045a6.621,6.621,0,0,0-.076.839c-.02.576-.172,1.052-.151,1.618.017.707-.076,1.4-.024,2.138.1,1.35.334,2.72.523,4.069a35.128,35.128,0,0,0,1.935,7.128" transform="translate(-4.792 -5.609)" fill="#001c43"/>
    <path id="Path_54" data-name="Path 54" d="M66.62,75.593a.63.63,0,0,1,.519.384,1.175,1.175,0,0,1,.108.647,2.762,2.762,0,0,0-.205-.469,4,4,0,0,1,.071.478c-.027-.123-.072-.243-.139-.277.014.173.081.43.084.586a2.28,2.28,0,0,1-.023.594,2.419,2.419,0,0,0-.152-.909,1.088,1.088,0,0,1-.038.265c-.025-.115-.038-.322-.111-.369a1.487,1.487,0,0,1-.057.625,3.382,3.382,0,0,0-.138.564,2.938,2.938,0,0,0,.014-.729,1.064,1.064,0,0,0-.088.32.052.052,0,0,0-.024-.032c-.012.048-.043.106-.053.157-.015,0-.033,0-.046-.011l.032.012-.028.035a3.674,3.674,0,0,0-.165.721c-.072.505-.408.852-.461,1.352-.067.624-.416,1.163-.515,1.807a27.331,27.331,0,0,1-.653,3.563c-.645,2.186-.973,4.229-1.406,6.427a17.008,17.008,0,0,0-.263,4.094,14.886,14.886,0,0,1-.055,1.811,15.483,15.483,0,0,0-.139,1.693c.093-.542.178-1.035.268-1.561s.139-1.047.188-1.577a13.18,13.18,0,0,1-.041,1.716,16.556,16.556,0,0,1-.3,1.722,11.481,11.481,0,0,0-.27,1.9,8.056,8.056,0,0,0,.189,1.895,8.651,8.651,0,0,1-.164-1.746,9.244,9.244,0,0,1,.245-1.737,18.391,18.391,0,0,0,.574-3.118c.1-1.05.115-2.144.274-3.213a17.669,17.669,0,0,1,.7-3.077,31.96,31.96,0,0,0-.472,3.743,30.67,30.67,0,0,1-.32,4,15.354,15.354,0,0,0-.676,4,36.46,36.46,0,0,0,.691,3.718,8.415,8.415,0,0,1,.112,1.127,19.831,19.831,0,0,0-.6-3.752,7.057,7.057,0,0,1-.1-2,13.023,13.023,0,0,1,.431-1.979,16.071,16.071,0,0,0,.591-3.955A33.618,33.618,0,0,1,64.4,91.25c.348-2.186.886-4.332,1.374-6.534.163-.6.324-1.193.484-1.783.332-1.22.674-2.452.972-3.69.133-.551.329-1.309.44-2.012a1.9,1.9,0,0,0-.222-1.351.61.61,0,0,0-.83-.286" transform="translate(-9.237 -11.156)" fill="#001c43"/>
    <path id="Path_55" data-name="Path 55" d="M39.09,101.91a1.708,1.708,0,0,0,.214-2.025,1.614,1.614,0,0,1-.139,1.82,1.07,1.07,0,0,1-.854.359,1.188,1.188,0,0,1-.739-.338,1.272,1.272,0,0,0,.9.227,1.087,1.087,0,0,0,.808-.668,1.548,1.548,0,0,0,.042-1.083,1.816,1.816,0,0,0-.557-.813,1.194,1.194,0,0,0-.233-.156,1.866,1.866,0,0,1,.654.708,1.55,1.55,0,0,1,.144,1.036,1.182,1.182,0,0,1-.6.827,1.078,1.078,0,0,1-.894-.024,1.128,1.128,0,0,1-.717-1.122,1.047,1.047,0,0,1,.128-.35,1.55,1.55,0,0,1,.562-.564c.207-.153.609-.2.746-.363a2.423,2.423,0,0,0-.272,0,.564.564,0,0,1,.108-.058.429.429,0,0,0-.115.011.138.138,0,0,0,.069-.047.3.3,0,0,0-.144.047.543.543,0,0,1-.133.072c.06-.049.144-.106.2-.152l-.077,0c.028-.026.09-.032.106-.058a1.658,1.658,0,0,0-.192.038.42.42,0,0,0-.153.043,1.739,1.739,0,0,0,.177-.106.248.248,0,0,0-.093.016.02.02,0,0,0,0-.012.29.29,0,0,0-.046.009c0-.005-.006-.009-.005-.016l0,.012-.013,0a.537.537,0,0,0-.2.077c-.122.072-.268.058-.372.163-.124.126-.3.192-.4.355a2.21,2.21,0,0,0-.3.973,1.237,1.237,0,0,0,.285.895,2.018,2.018,0,0,0,.767.573,1.254,1.254,0,0,0,1.289-.15,1.5,1.5,0,0,0,.418-.5.986.986,0,0,0,.121-.572,1.282,1.282,0,0,1-.5.926" transform="translate(-5.422 -14.649)" fill="#001c43"/>
    <path id="Path_56" data-name="Path 56" d="M54.264,99.6a2.352,2.352,0,0,0-.084-1.206,1.434,1.434,0,0,0-.346-.539,1.259,1.259,0,0,0-.547-.295,1.3,1.3,0,0,1,.5.27,1.272,1.272,0,0,1,.331.476,1.885,1.885,0,0,1,.091,1.074,2.9,2.9,0,0,1-.366.935,1.456,1.456,0,0,1-.641.652,1.962,1.962,0,0,0,.639-.868,2.7,2.7,0,0,0,.276-1.189,1.333,1.333,0,0,0-.55-1.108,1.1,1.1,0,0,0-1.1-.064.531.531,0,0,0-.205.2.9.9,0,0,1,.984-.257,1.081,1.081,0,0,1,.518.322,1.319,1.319,0,0,1,.268.562,2.814,2.814,0,0,1-.662,2.154.571.571,0,0,1-.651.21c-.079-.044-.1-.084-.139-.214-.036-.165-.07-.32-.1-.476l-.1-.549a2.86,2.86,0,0,1-.121-.978.374.374,0,0,1,.058-.141.528.528,0,0,1,.134-.123.917.917,0,0,1,.286-.12.331.331,0,0,0-.242-.072.229.229,0,0,1,.115-.047.218.218,0,0,0-.124,0,.232.232,0,0,0,.078-.044.242.242,0,0,0-.161.054c-.024.01-.1.1-.123.1a.749.749,0,0,1,.2-.194c-.032,0-.062.01-.092.015.031-.03.107-.047.128-.07a.685.685,0,0,0-.233.072.42.42,0,0,0-.16.108,2.5,2.5,0,0,1,.178-.178.261.261,0,0,0-.108.052.021.021,0,0,0,0-.014.365.365,0,0,0-.054.029s-.009-.007-.009-.014l.005.011-.016,0a.52.52,0,0,0-.186.2.906.906,0,0,0-.178.476,2.83,2.83,0,0,0,.057.6,5.3,5.3,0,0,1,.309,1.035,2.152,2.152,0,0,0,.108.517.652.652,0,0,0,.475.389.948.948,0,0,0,.6-.072,1.492,1.492,0,0,0,.464-.372,2.776,2.776,0,0,0,.566-1.186,3.351,3.351,0,0,0,.083-.648,1.258,1.258,0,0,0-.139-.629,1.808,1.808,0,0,1-.007,1.136" transform="translate(-7.644 -14.412)" fill="#001c43"/>
    <path id="Path_57" data-name="Path 57" d="M19.652,46.95a3.945,3.945,0,0,0-.516.329.891.891,0,0,0,.255-.3,5.959,5.959,0,0,0-.616.473,3.335,3.335,0,0,1-.635.462,6.225,6.225,0,0,0,.88-.835,2.036,2.036,0,0,1-.339.176c.12-.109.364-.286.4-.385a6.645,6.645,0,0,1-.794.477c-.236.125-.467.2-.689.335a3.244,3.244,0,0,0,.76-.556,1.979,1.979,0,0,0-.384.194.062.062,0,0,0,.016-.041c-.059.026-.142.048-.2.078-.009-.014-.014-.009-.014-.009l-.055.005c-.3.114-.6.263-.878.4-.6.3-1.206.257-1.8.538-.753.353-1.6.4-2.4.761A18.511,18.511,0,0,0,8.39,51.586a8.339,8.339,0,0,0-2.572,3.746A19.225,19.225,0,0,0,4.9,59.71a25.487,25.487,0,0,0,.113,5.476c.07.638.126,1.6.153,2.512s.021,1.791.094,2.323c.05-1.4.072-2.906.053-4.358A22.916,22.916,0,0,1,5.4,70.376a16.409,16.409,0,0,1-1.213,4.467A17.132,17.132,0,0,0,5.412,70.76a25.251,25.251,0,0,0,.2-4.261c-.027-1.438-.1-2.887-.064-4.316A17.07,17.07,0,0,1,6.1,58.04a24.209,24.209,0,0,0-.252,5.014c.058,1.765.188,3.588.126,5.386A15.287,15.287,0,0,1,5,73.6a23.783,23.783,0,0,0-1.561,4.74,4.642,4.642,0,0,0-.014,1.367A10.719,10.719,0,0,1,4.53,74.973c.323-.8.662-1.6.926-2.438a14.213,14.213,0,0,0,.538-2.586c.413-3.544-.182-7.265.155-10.437.264-2.9,1.205-5.775,3.431-7.416a10.091,10.091,0,0,1,2.006-1.107c1.475-.642,3.127-1.067,4.763-1.68a13.957,13.957,0,0,0,2.6-1.2,5.652,5.652,0,0,0,1.066-.831,1.7,1.7,0,0,0,.461-.75,9,9,0,0,1-1.263.859,5.519,5.519,0,0,1,.435-.437" transform="translate(-0.499 -6.873)" fill="#001c43"/>
    <path id="Path_58" data-name="Path 58" d="M48.32,46.922l-.013-.006c0,.013.008.011.013.006" transform="translate(-7.136 -6.93)" fill="#001c43"/>
    <path id="Path_59" data-name="Path 59" d="M46.936,43.061a6.028,6.028,0,0,0-.324.986c.057-.257.118-.522.13-.626a6.1,6.1,0,0,0-.29,1.289c-.038.188-.095,1.059-.118,1.306a15.827,15.827,0,0,1,.166-2c-.055.219-.107.437-.152.652.019-.274.146-.792.158-.935a11.39,11.39,0,0,0-.321,1.618,12.5,12.5,0,0,0-.123,1.343c.006-.539.067-1.264.085-1.642a6.154,6.154,0,0,0-.1.769.139.139,0,0,0-.01-.058c-.013.113-.029.263-.043.384a.025.025,0,0,0-.011.01l0,0-.017.094c-.055.577-.069,1.165-.069,1.715,0,1.169-.136,2.143-.138,3.281,0,1.429-.162,2.826-.21,4.31a67.857,67.857,0,0,1-.72,8.254,48.108,48.108,0,0,1-4.252,14.2c-.319.648-.707,1.287-1.065,1.956s-.814,1.3-1.218,1.959q-1.314,1.93-2.779,3.719a15.169,15.169,0,0,0-2.43,3.9,10.642,10.642,0,0,0-.59,4.33,11.318,11.318,0,0,1,.55-4.007,11.881,11.881,0,0,1,2.025-3.448,11.819,11.819,0,0,0-2.045,3.78,13.083,13.083,0,0,0-.425,4.3c.062,1.429.266,3.253.067.692a15.972,15.972,0,0,1,.159-3.874,9.374,9.374,0,0,1,1.466-3.584,34.193,34.193,0,0,1,2.325-2.97c.4-.47.757-.972,1.128-1.46a18.075,18.075,0,0,0,1.064-1.493A38.27,38.27,0,0,0,42.237,75.5a36.2,36.2,0,0,1-4.181,7.652c-.87,1.251-1.9,2.4-2.86,3.635a10.5,10.5,0,0,0-2.115,4.194,16.188,16.188,0,0,0-.205,4.7c.124,1.552-.038-.505-.014-2.065a10.416,10.416,0,0,1,.963-4.536,19.364,19.364,0,0,1,2.668-3.748A36.126,36.126,0,0,0,41.3,77.925a40.422,40.422,0,0,0,2.713-7.319,58.793,58.793,0,0,0,1.54-7.746c.192-1.427.364-2.865.488-4.3.263-2.95.4-5.927.459-8.877A42.277,42.277,0,0,1,46.735,45a10.437,10.437,0,0,1,.5-2.04c.2-.56.427-.965.506-1.209a7.1,7.1,0,0,0-1.057,2.281,6.239,6.239,0,0,1,.251-.975" transform="translate(-4.797 -6.168)" fill="#001c43"/>
    <path id="Path_60" data-name="Path 60" d="M29.125,21.542a2.327,2.327,0,0,1,.019-.374,1.53,1.53,0,0,1,.253-.623c.118-.186.341-.292.442-.568a1.442,1.442,0,0,0-.237.049.282.282,0,0,1,.077-.1.17.17,0,0,0-.1.036.168.168,0,0,0,.046-.079c-.046,0-.093.066-.116.095s-.062.115-.086.12a2.13,2.13,0,0,1,.118-.244l-.073.022c.018-.037.075-.065.081-.1a1.94,1.94,0,0,0-.176.1.373.373,0,0,0-.131.09,1.1,1.1,0,0,0,.127-.18.157.157,0,0,0-.086.047.043.043,0,0,0,0-.018c-.012.009-.032.013-.044.022,0-.006-.011-.011-.013-.02l.008.015-.014,0a.435.435,0,0,0-.164.147c-.084.118-.251.141-.3.286-.055.174-.218.291-.243.485a6.262,6.262,0,0,0,.062.995,16.541,16.541,0,0,0,.342,1.649,3.461,3.461,0,0,0,.286.972c.1.218.242.691.439.832a2.488,2.488,0,0,1-.285-.8A12.8,12.8,0,0,0,30.2,26a5.986,5.986,0,0,1-.907-3.131,8.29,8.29,0,0,0,1.455,3.61,1.341,1.341,0,0,0,.22.189c-.962-.845-1.22-2.368-1.5-3.571-.128-.557-.282-1.088-.345-1.559" transform="translate(-4.21 -2.921)" fill="#001c43"/>
    <path id="Path_61" data-name="Path 61" d="M50.789,25.312c.4-1.615,2.138-2.756,2.829-4.35a3.6,3.6,0,0,0,.148-2.4,3.32,3.32,0,0,0-.244-.661,2.43,2.43,0,0,0-1.033-1.087,1.918,1.918,0,0,0-.783-.219.259.259,0,0,0-.046.01c.308-1.22.569-2.34.9-3.562a5.6,5.6,0,0,0,.066-2.634,6.4,6.4,0,0,0-.862-2.281,6.289,6.289,0,0,1,.685,2.065,11.14,11.14,0,0,0-2.084-4.087,10.055,10.055,0,0,1,1.865,3.712,6.037,6.037,0,0,1,.142,2.043,7.943,7.943,0,0,1-.49,1.881,9.2,9.2,0,0,0,.366-2.293,7.433,7.433,0,0,0-.463-2.465A10.99,10.99,0,0,0,49.16,4.968a5.719,5.719,0,0,0-.494-.432,11.009,11.009,0,0,1,2.8,3.814,8.148,8.148,0,0,1,.644,2.4,6.709,6.709,0,0,1-.182,2.311c-.329,1.322-.713,2.679-.98,4.064L50.7,18.247c-.169.773-.327,1.553-.459,2.333-.118.691-.348,1.92-.118,2.238.054-.219.068-.47.13-.678a2.375,2.375,0,0,1,.021.282,1.619,1.619,0,0,0,.046-.277.39.39,0,0,0,.028.18,1.531,1.531,0,0,0,.018-.358,1.817,1.817,0,0,1,0-.36,5.223,5.223,0,0,0,.065.56c.014-.059.021-.118.038-.175a1.254,1.254,0,0,0,.02.26c.026-.147.032-.281.064-.433a2.637,2.637,0,0,0,.061-.355,2.184,2.184,0,0,0,.005.446.833.833,0,0,0,.039-.2.029.029,0,0,0,.012.018c.007-.028.016-.066.024-.1.009,0,.017,0,.024,0l-.016-.005.014-.023a2.8,2.8,0,0,0,.072-.452c.028-.314.193-.548.212-.856.025-.386.194-.736.239-1.134a16.506,16.506,0,0,1,.314-2.082.736.736,0,0,1,.122,0,.689.689,0,0,0,.177.043c-.079.007-.171-.014-.234.033a.463.463,0,0,0,.1.021.032.032,0,0,0-.011.013c.014,0,.031.016.046.019a.058.058,0,0,1-.006.023l.006-.016.009.012a1.255,1.255,0,0,0,.213.053c.155.032.207.19.342.242.181.069.24.268.381.393a1.643,1.643,0,0,1,.559.952A3.249,3.249,0,0,1,53,20.845l-.617,1.063a6.408,6.408,0,0,0-.605,1.03,6.266,6.266,0,0,1,.653-.863c-.369.666-.891,1.3-1.284,1.994.775-1.289,1.8-2.218,2.478-3.5-.482,1.626-2.2,2.859-2.751,4.393a1.687,1.687,0,0,0-.09.354m.769-8.28,0-.011a.1.1,0,0,1,.023,0,.209.209,0,0,1-.025.008m.011-.061,0-.013.009-.035.026-.006c.029-.011.171-.055.205-.026a.928.928,0,0,0-.242.08" transform="translate(-7.189 -0.67)" fill="#001c43"/>
    <path id="Path_62" data-name="Path 62" d="M28.468,11.97q-.031.376-.027.756c0-.251.008-.5.027-.756" transform="translate(-4.201 -1.768)" fill="#001c43"/>
    <path id="Path_63" data-name="Path 63" d="M28.73,10.246c-.056.237-.107.474-.147.713.04-.239.089-.476.147-.713" transform="translate(-4.222 -1.514)" fill="#001c43"/>
    <path id="Path_64" data-name="Path 64" d="M28.759,10.225l0,.018,0-.018" transform="translate(-4.248 -1.51)" fill="#001c43"/>
    <path id="Path_65" data-name="Path 65" d="M28.582,11.082c-.005.033-.008.066-.013.1.005-.033.008-.066.013-.1" transform="translate(-4.22 -1.637)" fill="#001c43"/>
    <path id="Path_66" data-name="Path 66" d="M28.554,11.2c-.034.219-.064.438-.082.657.018-.22.048-.439.082-.657" transform="translate(-4.206 -1.654)" fill="#001c43"/>
    <path id="Path_67" data-name="Path 67" d="M33.447,2.018a12.6,12.6,0,0,1,5.71-1.48,8.111,8.111,0,0,1,1.583.2,6.875,6.875,0,0,1,2.839,1.436,6.83,6.83,0,0,1,1.128,1.255c.341.467.566.924.807,1.055a6.413,6.413,0,0,0-.356-.9,1.68,1.68,0,0,1,.249.313,1.441,1.441,0,0,0-.177-.361.779.779,0,0,0,.181.188,1.231,1.231,0,0,0-.2-.306.917.917,0,0,1,.274.158A1.125,1.125,0,0,0,46,3.829a.549.549,0,0,0,.347-.012.653.653,0,0,0,.281-.136.506.506,0,0,1-.257.083,4.091,4.091,0,0,0,.528-.239,1.932,1.932,0,0,1-.482.185.534.534,0,0,1-.486-.156.861.861,0,0,0,.589.079,4.584,4.584,0,0,0,.515-.184,4.105,4.105,0,0,1-.434.146.82.82,0,0,1-.588-.061.94.94,0,0,1-.322-.286l-.036-.092,0-.006c.012-.01.026-.018.026-.036,0-.1,0-.211.072-.266A4.332,4.332,0,0,1,46.1,2.53a.607.607,0,0,0,.19-.216,1.052,1.052,0,0,0,.136-.245.694.694,0,0,1-.154.191c.095-.149.2-.3.309-.441-.206.261-.37.534-.744.614a3.4,3.4,0,0,0,.827-.73c-.1.1-.2.206-.307.307a2.36,2.36,0,0,1-.489.34,1.973,1.973,0,0,0-.448.3,1.263,1.263,0,0,0-.118.093,1.046,1.046,0,0,0-.1.118.955.955,0,0,0-.077-.114.045.045,0,0,0,.03.007l-.089-.128c.007-.007,0-.009,0-.009L45.05,2.58a2.773,2.773,0,0,0-.469-.516,5.941,5.941,0,0,0-.991-.9A8.159,8.159,0,0,0,42.037.349a10.428,10.428,0,0,0-3.3-.342A12.81,12.81,0,0,0,33.1,1.735a6.492,6.492,0,0,0-1.478,1.132A8.179,8.179,0,0,0,30.5,4.385a15.05,15.05,0,0,0-1.45,3.106,13.68,13.68,0,0,1,1.329-2.772,15.569,15.569,0,0,0-1.658,4,13.772,13.772,0,0,1,1.418-3.453,9.51,9.51,0,0,1,1.751-2.344,7.391,7.391,0,0,1,2.42-1.407,7.6,7.6,0,0,0-2.779,1.9,14.021,14.021,0,0,0-1.939,3.08,11.791,11.791,0,0,0-1.06,3.47,6.4,6.4,0,0,0-.045.97A9.6,9.6,0,0,1,29.2,7.443c.927-2.2,2.248-4.48,4.243-5.425m11.725.872-.04.044-.005.007a2.917,2.917,0,0,0-.305-.406c.113.111.238.244.35.355m-.1.3a.233.233,0,0,0,.041.077.2.2,0,0,1,.02.049c-.005-.005-.013-.015-.017-.02-.053-.056-.294-.3-.345-.378.1.078.2.176.3.274" transform="translate(-4.207 0)" fill="#001c43"/>
    <path id="Path_68" data-name="Path 68" d="M28.549,13.483a4.723,4.723,0,0,1-.064-.662v.013a3.616,3.616,0,0,0,.065.649" transform="translate(-4.208 -1.894)" fill="#001c43"/>
    <path id="Path_69" data-name="Path 69" d="M28.591,13.772c-.013-.057-.02-.116-.031-.174.005.032,0,.066.009.1s.015.049.021.075" transform="translate(-4.219 -2.009)" fill="#001c43"/>
    <path id="Path_70" data-name="Path 70" d="M29.411,16.282c-.14-.58-.407-1.153-.61-1.76.1.3.211.585.316.865a7.842,7.842,0,0,1,.294.895" transform="translate(-4.254 -2.145)" fill="#001c43"/>
    <path id="Path_71" data-name="Path 71" d="M28.6,13.8a5.932,5.932,0,0,0,.175.613A5.7,5.7,0,0,1,28.6,13.8" transform="translate(-4.224 -2.039)" fill="#001c43"/>
    <path id="Path_72" data-name="Path 72" d="M49.852,1.941l-.038.04c.032-.031.063-.066.095-.092l-.057.052" transform="translate(-7.359 -0.279)" fill="#001c43"/>
    <path id="Path_73" data-name="Path 73" d="M50.3,4.021l-.049.019c.042-.014.085-.032.124-.043l-.076.025" transform="translate(-7.423 -0.59)" fill="#001c43"/>
    <path id="Path_74" data-name="Path 74" d="M33.253,13.338c-.155.231-.075.678-.293.913a1.862,1.862,0,0,1-.458.354l.054-.029a.935.935,0,0,0,.576-.692,1.657,1.657,0,0,1,.112-.476,1.509,1.509,0,0,1,.305-.381c.23-.226.465-.446.707-.651a7.415,7.415,0,0,1,1.506-1.022,7.97,7.97,0,0,1,3.073-.66l.9-.046a8.243,8.243,0,0,0,1.9-.3,3.447,3.447,0,0,0,1.007-.467,1.057,1.057,0,0,0,.378-.506.394.394,0,0,0-.07-.426.748.748,0,0,1-.289.557,2.118,2.118,0,0,0,.092-.232c-.043.066-.108.118-.148.179a.2.2,0,0,0,.045-.148c-.06.06-.122.175-.17.231-.023.035-.153.2-.211.209a1,1,0,0,0,.249-.391.543.543,0,0,1-.106.078c.029-.053.1-.13.084-.175a.939.939,0,0,1-.228.2c-.08.045-.154.077-.234.127a.627.627,0,0,0,.232-.235.431.431,0,0,0-.121.072.037.037,0,0,0,0-.021l-.065.028c0-.008-.012-.013-.012-.023l.007.018-.02,0a1.463,1.463,0,0,0-.3.152c-.208.117-.43.061-.638.163a5.563,5.563,0,0,1-.858.173,8.153,8.153,0,0,1-1.7.326,7.169,7.169,0,0,0-3.064.839,6.368,6.368,0,0,0-1.551,1.237c-.164.175-.4.424-.639.7a1.133,1.133,0,0,0-.268.513,3.158,3.158,0,0,0-.031.395,4,4,0,0,1,.052-.414,1.044,1.044,0,0,1,.224-.423c.193-.223.381-.4.574-.591-.2.219-.4.415-.593.666-.231.266-.191.658-.255.877a.635.635,0,0,1-.08.159c.011-.016.03-.026.04-.043.125-.193.063-.467.185-.759a2.484,2.484,0,0,1,.522-.638,6.208,6.208,0,0,1,2.531-1.676,7.674,7.674,0,0,0-2.956,2.268" transform="translate(-4.801 -1.321)" fill="#001c43"/>
    <path id="Path_75" data-name="Path 75" d="M44.685,37.294l.029-.029c-.095.087-.189.176-.285.253l.256-.224" transform="translate(-6.563 -5.505)" fill="#001c43"/>
    <path id="Path_76" data-name="Path 76" d="M49.381,28.1c-.013.049-.014.058-.046.183.012-.064.021-.112.043-.226-.02.069-.018.064-.029.1v-.008c0,.013-.01.031-.016.051h-.005l0,0-.006.012c-.025.077-.047.157-.064.232-.034.161-.113.285-.146.441-.036.2-.124.384-.162.592-.059.382-.1.788-.2,1.157a2.365,2.365,0,0,1-1.047,1.64,4.771,4.771,0,0,0-.977.893,5.8,5.8,0,0,0-.709,1.014,5.223,5.223,0,0,1,.7-.851c-.482.642-.94,1.282-1.439,1.866.476-.541.886-1.105,1.372-1.641a5.229,5.229,0,0,1,1.15-.953c.009.025.021.048.029.072-.156.128-.317.256-.477.389a8.744,8.744,0,0,0-.924.938c-.568.652-1.128,1.3-1.676,1.825.487-.445.967-.987,1.463-1.52.291-.326.6-.644.905-.943.241-.216.493-.406.736-.6a6.482,6.482,0,0,1-.237,2.819,5.881,5.881,0,0,0-.144,1.423c-.009.13-.013.262-.012.393a5.185,5.185,0,0,0,.05.8c.035.237.08.659.373.726.005-.076-.037-.157-.022-.231a.482.482,0,0,1,.082.085.191.191,0,0,0-.015-.093.132.132,0,0,0,.066.053c.005-.038-.041-.088-.061-.116s-.086-.09-.077-.113a1.327,1.327,0,0,0,.186.167.28.28,0,0,1,0-.06c.028.022.042.069.077.079a1.369,1.369,0,0,1-.032-.145.317.317,0,0,0-.019-.12c.029.046.052.11.1.14a.1.1,0,0,0-.006-.069l.016,0c0-.01,0-.024,0-.034a.068.068,0,0,1,.023,0H48.2l.009-.009a.323.323,0,0,0-.028-.152c-.041-.1.068-.2.021-.3-.058-.125.032-.257-.009-.388a1.745,1.745,0,0,1-.136-.741,8.735,8.735,0,0,1,.194-1.349,2.489,2.489,0,0,0,.115-.832c-.011-.2.053-.6-.07-.776a1.742,1.742,0,0,1-.058.7,10.493,10.493,0,0,0-.118-1.505,4.565,4.565,0,0,1-.415,2.693,7.216,7.216,0,0,0,.175-3.064c.074-.059.151-.117.222-.178a3.278,3.278,0,0,0,.764-.876,2.785,2.785,0,0,0,.293-1.15c.035-.218.066-.407.1-.595.065-.4.1-.814.149-1.232.042-.369.1-1.031.12-1.17-.025.132-.031.165-.067.357.008-.049.016-.108.021-.142-.008.035-.005.025-.031.144,0-.021.008-.048.014-.089-.014.056-.028.138-.035.183,0,.028-.023.154-.027.184.011-.089.021-.174.035-.281L49.413,28c.009-.048.013-.068.025-.13-.016.061-.043.166-.057.223m-1.526,4.57c-.009-.025-.013-.05-.022-.075.162-.108.322-.216.477-.329-.141.14-.295.273-.455.4" transform="translate(-6.612 -4.07)" fill="#001c43"/>
    <path id="Path_77" data-name="Path 77" d="M78.9,73.872c-.6-1.424-1.238-2.757-1.682-4.1C75.554,64.8,75.58,59.442,74.872,54a40.871,40.871,0,0,0-.71-4.509,6.009,6.009,0,0,0-.456-1.267,4.047,4.047,0,0,0-.893-1.181A8.372,8.372,0,0,0,70.6,45.731c-1.39-.638-2.8-1.267-4.243-1.824a28.211,28.211,0,0,0-4.8-1.457,7.7,7.7,0,0,0-3.765-.05,18.593,18.593,0,0,1,2.663.357c-.322-.013-.695,0-1.069-.029.353.059.739.138,1.07.175a2.02,2.02,0,0,0-.673.009c.418.081,1.025.124,1.364.162a8.767,8.767,0,0,1,1.358.211,14.343,14.343,0,0,0-2.095-.143c.224.054.451.089.666.153a6.682,6.682,0,0,0-.968-.053c.56.1,1.061.175,1.634.325.463.13.876.256,1.324.365a9.073,9.073,0,0,0-1.651-.266c.239.081.5.139.752.2a.094.094,0,0,0-.064.017c.111.03.253.085.371.113,0,.017.008.017.008.017l.086.046c.551.188,1.122.352,1.659.509,1.149.337,1.982.945,3.087,1.329a16.712,16.712,0,0,1,2.005.9c.655.341,1.347.657,1.948.983a2.821,2.821,0,0,1,1.272,1.266,8.168,8.168,0,0,1,.6,1.953,30.123,30.123,0,0,1,.649,4.226c.458,5.33.652,10.286,2.346,15.408.493,1.508,1.255,2.963,1.805,4.394a6.282,6.282,0,0,1,.511,3.988,7.043,7.043,0,0,1-.813,1.65,10.154,10.154,0,0,0-.63,1.229,4.088,4.088,0,0,0-.334,1.675,4.159,4.159,0,0,0,.392,1.617c.169.361.334.711.491,1.045a3.521,3.521,0,0,1,.294,1.385,3.69,3.69,0,0,0-.022-.776,2.951,2.951,0,0,0-.214-.723,8.459,8.459,0,0,1-.758-2.122A4.123,4.123,0,0,1,77.4,81.5c.355-.658.743-1.194,1.025-1.7-.274.579-.681,1.181-1.018,1.921a4.659,4.659,0,0,0-.385,1.243,3.412,3.412,0,0,0,.083,1.4c.25.868.671,1.484.828,2.037a3.669,3.669,0,0,1,.015,1.791c-.127.645-.347,1.345-.538,2.045l-.574,2.087q-.566,2.083-1.084,4.132c.662-2.543,1.382-5.1,2.109-7.6a6.346,6.346,0,0,0,.278-1.747,3.778,3.778,0,0,0-.453-1.619,4.394,4.394,0,0,1-.524-2.178,4.775,4.775,0,0,1,.749-2.066c.342-.582.7-1.1.946-1.632a4.6,4.6,0,0,0,.408-1.681,9.237,9.237,0,0,0-.736-3.568c-.432-1.174-.977-2.314-1.366-3.493a21.884,21.884,0,0,1-.9-3.543,26.258,26.258,0,0,0,1.324,4.133,37.3,37.3,0,0,1,1.734,4.285,7.145,7.145,0,0,1,.3,2.329,5.011,5.011,0,0,1-.691,2.225,15.547,15.547,0,0,0-1.177,2.146,3.1,3.1,0,0,0-.206,1.279,3.925,3.925,0,0,0,.334,1.243,5.028,5.028,0,0,1,.635,2.2,8.348,8.348,0,0,1-.447,2.274c-.459,1.534-.9,3.059-1.319,4.56-.836,3-1.571,5.917-2.146,8.646-.174.827-.348,1.753-.451,2.459.507-2.726,1.19-5.613,1.985-8.583.4-1.485.825-2.991,1.272-4.506q.343-1.135.686-2.281a10.9,10.9,0,0,0,.536-2.29,3.631,3.631,0,0,0-.082-1.145,7.2,7.2,0,0,0-.412-1.1,5.429,5.429,0,0,1-.394-1.155,2.624,2.624,0,0,1,.06-1.218,8.81,8.81,0,0,1,1.1-2.123,5.488,5.488,0,0,0,.874-2.217,9.138,9.138,0,0,0-.883-4.607" transform="translate(-8.537 -6.233)" fill="#001c43"/>
    <path id="Path_78" data-name="Path 78" d="M33.7,24.334a1.108,1.108,0,0,0,.52.049,5.559,5.559,0,0,1-.828-.255,3.117,3.117,0,0,1-2.146-2.853c-.075-2.3,1.388-2.737,3.04-2.787a2.61,2.61,0,0,1,2.995,2.826,2.912,2.912,0,0,1-.864,2.065.436.436,0,0,0,.1-.059l-.127.184.128-.077-.292.269a1.954,1.954,0,0,0,.417-.182c-.008.014,0,.017.008.009a3.494,3.494,0,0,0,.669-.748c.045-.119.1-.27.147-.43a5.138,5.138,0,0,0,.141-.513,4.836,4.836,0,0,0,.1-.534,2.631,2.631,0,0,1,.213-1.032.883.883,0,0,1,1.445,0,2.617,2.617,0,0,1,.214,1.032,4.869,4.869,0,0,0,.389,1.477,3.278,3.278,0,0,0,2.99,1.789,3.358,3.358,0,0,0,3.265-2.457.819.819,0,0,1-.014.1,11.926,11.926,0,0,0,.341-1.936,1.19,1.19,0,0,1,.033-.164s.032-.178.033-.186a.668.668,0,0,1,.254-.449,1.077,1.077,0,0,1,.344-.164.756.756,0,0,1-.239-.038,1.3,1.3,0,0,1,.3-.037c-.05-.066-.161-.03-.229-.076-.014-.027.005-.036.02-.037.123-.014.245-.026.368-.035l-.232-.061a.587.587,0,0,0,.255-.1l-.1-.012c.078-.072.239-.055.24-.061l-.488-.107c.146.007.324.02.47.026a.182.182,0,0,0-.13-.075.269.269,0,0,1,.177-.009.668.668,0,0,0-.239-.086,3.1,3.1,0,0,1,.356,0,4.1,4.1,0,0,0-.683-.106l-.095.019a2.7,2.7,0,0,1-1.157-.024c-.39-.085-.782-.163-1.175-.236a4.672,4.672,0,0,0-3.78.467,3.027,3.027,0,0,1-1.1.525,6.109,6.109,0,0,1-.772-.11c-.1-.014-.216-.027-.34-.035-.124.008-.236.02-.339.035a6.1,6.1,0,0,1-.773.11,3.034,3.034,0,0,1-1.1-.525,4.672,4.672,0,0,0-3.78-.467c-.392.073-.785.151-1.174.236a2.945,2.945,0,0,1-.4.058c-.117.045-.231.093-.349.13a.667.667,0,0,1,.078.031c-.02,0-.038.01-.058.012H30.8c.061,0,.124,0,.188-.005l.2-.027.1-.014.054-.007.053-.014.218-.054.225-.055c.076-.022.153-.044.232-.065.156-.043.315-.081.476-.118.321-.068.645-.124.951-.161.153-.02.3-.031.441-.038s.274-.008.4-.006a3.125,3.125,0,0,1,.335.026c.1.01.185.031.256.044a1.324,1.324,0,0,1,.16.047l.056.018-.058-.013c-.037-.008-.091-.025-.162-.034a2.432,2.432,0,0,0-.256-.027c-.1-.009-.211-.006-.332-.008s-.254.009-.394.022-.286.031-.436.05c-.3.041-.623.1-.942.172-.159.034-.318.072-.474.111-.078.02-.154.04-.231.061l-.229.053-.172.038c-.037.011-.076.018-.1.024-.058.014-.118.027-.176.038a2.233,2.233,0,0,1-.361.032,1.116,1.116,0,0,0-.119,0l-.089.013a.712.712,0,0,1-.113-.007l.125.038a.515.515,0,0,0-.19-.025.2.2,0,0,1-.084,0,.375.375,0,0,0-.043-.018l-.014,0a.131.131,0,0,0-.054.013l.213.055a.151.151,0,0,1,.112.075.07.07,0,0,1-.056.047.5.5,0,0,0-.2-.045l-.117.02-.017,0,.523.209a.891.891,0,0,0-.626.01.5.5,0,0,1,.353.112l-.141,0a.524.524,0,0,1,.136.068.737.737,0,0,1,.111.124,1.358,1.358,0,0,1,.107.15,1.637,1.637,0,0,1,.159.75l.036.689c.045.3.228,1.076.222,1.013a3.5,3.5,0,0,0,2.929,2.368l-.3-.142m8.5-6.066a1.278,1.278,0,0,1,.16-.047c.071-.014.156-.034.256-.044a3.125,3.125,0,0,1,.335-.026c.124,0,.257,0,.4.006s.289.019.441.038c.306.037.63.093.95.161.16.037.32.075.476.118.078.02.155.043.231.065l.226.055.218.054.053.014.053.007.1.014.2.027c.065.007.128,0,.188.005s.118,0,.175,0l.158-.013a.466.466,0,0,1,.259.02c.07.034.058.044-.007.017a.245.245,0,0,0-.112-.019,1.306,1.306,0,0,0-.137.017l-.157.023c-.055.009-.115.005-.177.009s-.127.007-.193,0l-.205-.02-.107-.01-.055-.006-.055-.011-.222-.049-.228-.053c-.077-.021-.153-.042-.231-.061-.156-.039-.315-.077-.474-.111-.319-.072-.639-.131-.942-.172-.151-.02-.3-.037-.437-.05s-.271-.019-.393-.022-.234,0-.332.008a2.439,2.439,0,0,0-.255.027c-.071.009-.124.026-.163.034l-.057.013.056-.018m.808.22c1.653.05,3.116.488,3.04,2.787A3.091,3.091,0,0,1,43,24.283a2.982,2.982,0,0,1-2.995-2.968A2.611,2.611,0,0,1,43,18.488m-5.381.98a1.521,1.521,0,0,1,.188-.085,1.8,1.8,0,0,1,.227-.07,1.55,1.55,0,0,1,.235-.034.946.946,0,0,1,.109,0,.712.712,0,0,1,.1.006.779.779,0,0,1,.143.027l.053.015-.055,0c-.035,0-.084,0-.142.009-.029,0-.061.007-.094.01s-.068.009-.1.014-.073.014-.111.02-.075.016-.113.025c-.076.016-.151.037-.222.056l-.193.056-.19.059a1.079,1.079,0,0,1,.171-.109" transform="translate(-4.444 -2.669)" fill="#001c43"/>
  </g>
</svg>
